<svg width="20" height="17" viewBox="0 0 20 17" fill="none" xmlns="http://www.w3.org/2000/svg">
<path d="M19 14.3333C19 14.7754 18.8276 15.1993 18.5207 15.5118C18.2138 15.8244 17.7976 16 17.3636 16H2.63636C2.20237 16 1.78616 15.8244 1.47928 15.5118C1.1724 15.1993 1 14.7754 1 14.3333V5.16667C1 4.72464 1.1724 4.30072 1.47928 3.98816C1.78616 3.67559 2.20237 3.5 2.63636 3.5H5.90909L7.54545 1H12.4545L14.0909 3.5H17.3636C17.7976 3.5 18.2138 3.67559 18.5207 3.98816C18.8276 4.30072 19 4.72464 19 5.16667V14.3333Z" stroke="#312E38" stroke-width="1.5" stroke-linecap="round" stroke-linejoin="round"/>
<path d="M10 12C11.6569 12 13 10.6569 13 9C13 7.34315 11.6569 6 10 6C8.34315 6 7 7.34315 7 9C7 10.6569 8.34315 12 10 12Z" stroke="#312E38" stroke-width="1.5" stroke-linecap="round" stroke-linejoin="round"/>
</svg>
